<?xml version="1.0" encoding="UTF-8" standalone="no"?>
<!-- Created with Inkscape (http://www.inkscape.org/) -->

<svg
   width="210mm"
   height="178mm"
   viewBox="0 0 210 178"
   version="1.1"
   id="svg5"
   xml:space="preserve"
   sodipodi:docname="robot_icon.svg"
   inkscape:version="1.2.2 (732a01da63, 2022-12-09)"
   xmlns:inkscape="http://www.inkscape.org/namespaces/inkscape"
   xmlns:sodipodi="http://sodipodi.sourceforge.net/DTD/sodipodi-0.dtd"
   xmlns="http://www.w3.org/2000/svg"
   xmlns:svg="http://www.w3.org/2000/svg"><sodipodi:namedview
     id="namedview7"
     pagecolor="#ffffff"
     bordercolor="#000000"
     borderopacity="0.25"
     inkscape:showpageshadow="2"
     inkscape:pageopacity="0.0"
     inkscape:pagecheckerboard="0"
     inkscape:deskcolor="#d1d1d1"
     inkscape:document-units="mm"
     showgrid="false"
     inkscape:zoom="1"
     inkscape:cx="423"
     inkscape:cy="400"
     inkscape:window-width="1920"
     inkscape:window-height="1009"
     inkscape:window-x="1912"
     inkscape:window-y="-8"
     inkscape:window-maximized="1"
     inkscape:current-layer="layer1" /><defs
     id="defs2" /><g
     inkscape:label="Layer 1"
     inkscape:groupmode="layer"
     id="layer1"><path
       style="fill:#ffffff;stroke:none;stroke-width:0.144042"
       d="m 55.699114,33.734224 c 2.999959,-0.714158 6.560238,-0.321934 9.645177,-0.439903 7.919553,-0.30292 15.840552,-0.271086 23.770331,-0.427948 13.112688,-0.259275 26.225948,0.126609 39.325528,0.147651 5.93999,0.0095 11.952,-0.01071 17.86116,0.551679 1.84518,0.175581 3.80558,-0.26302 5.61764,0.168525 v -0.576166 l 0.14404,0.288085 h 0.14403 c -0.21463,-0.92907 -0.6842,-1.788999 -0.82104,-2.736795 -0.31402,-2.175315 -0.0433,-4.572167 -0.0433,-6.769956 V 10.543518 c 0,-2.6616738 0.50414,-5.9126078 -0.14982,-8.4984578 -0.66259,-2.61850852 -5.21863,-1.91925984 -7.27266,-1.83352408 -0.8958,0.0374337 -1.9885,0.18330543 -2.53902,0.98439568 -0.53353,0.7763877 -0.40951,1.8323139 -0.40951,2.7216699 v 5.4735832 c 0,4.5538191 -0.1315,9.1287831 -0.0469,13.6839561 0.0484,2.602259 0.42724,5.540275 -0.24112,8.066335 l -0.57617,-0.144039 c -0.082,-6.622603 0,-13.253705 0,-19.877749 0,-2.9932138 0.53368,-6.650388 -0.20756,-9.5673222 -0.18812,-0.74004718 -0.9488,-1.12884698 -1.64049,-1.28693695 -1.61873,-0.36996812 -4.14495,-0.26473323587 -5.78629,-0.0311075 -0.66649,0.0948792 -1.32274,0.22720979 -1.72909,0.81756625 -0.50573,0.7345575 -0.38818,1.5970361 -0.46525,2.4335863 -0.18465,2.0042391 -0.0894,4.0536929 -0.0749,6.0664152 0.0328,4.5525089 -0.0353,9.1124069 -0.0353,13.6672909 0,2.524187 0.31719,5.293674 -0.14403,7.778251 -1.3066,-1.636891 -0.57616,-5.455723 -0.57616,-7.490168 V 7.8067239 c 0,-1.8679466 0.57875,-4.9113311 -0.23811,-6.6196921 -0.36788,-0.76963487 -1.29117,-0.94724247 -2.06656,-1.00162733 -1.72504,-0.12100751 -6.42209,-0.60255886 -6.84659,1.57167083 -0.49536,2.5378844 -0.21145,5.3508017 -0.21145,7.9221898 V 23.21918 c 0,2.575033 0.1789,5.223526 -0.14403,7.778251 h -0.14404 c -0.65698,-2.874208 -0.43213,-5.848526 -0.43213,-8.786542 0,-4.22258 -0.0811,-8.45402 0.002,-12.6756653 0.0473,-2.3996331 0.46828,-5.4418221 -0.10059,-7.7782491 -0.17335,-0.7118916 -0.62521,-1.18607542 -1.34181,-1.36371896 -0.61261,-0.15188371 -1.24971,-0.092505 -1.87255,-0.1212536 -1.61456,-0.0745351 -5.26487,-0.73578729 -6.14798,1.05341056 -0.85316,1.7283396 -0.33389,4.8797409 -0.33389,6.7693946 V 23.795348 c 0,1.770848 0.11309,3.52081 0.16565,5.287911 0.0126,0.423195 0.0691,1.597855 -0.60425,1.596271 -0.69703,-0.0016 -0.51265,-1.367101 -0.48499,-1.768112 0.13986,-2.032571 0.0593,-4.088046 0.0593,-6.124362 V 7.6626824 c 0,-1.8750048 0.51956,-4.7682543 -0.38719,-6.4756506 C 108.00463,0.59477698 107.47081,0.37681448 106.83386,0.31200362 105.2095,0.14670405 101.8058,-0.23221362 100.3298,0.49226684 98.603642,1.3395835 99.19983,4.7864874 99.19983,6.3663073 V 23.795348 29.12489 c -1.43e-4,0.350883 0.135828,1.55464 -0.449412,1.55464 -0.718331,0 -0.551965,-1.41276 -0.562625,-1.840563 -0.05227,-2.113093 -0.140301,-4.219269 -0.140301,-6.339995 0,-5.087983 0.146055,-10.178372 0.144039,-15.2684146 C 98.190994,5.5701172 98.750278,2.6478577 97.890638,1.1830233 97.511517,0.53717463 96.883066,0.30762549 96.174955,0.21418849 94.541814,-0.00129476 91.690654,-0.18336759 90.125783,0.42348125 89.252174,0.76227433 89.073558,1.6465232 89.015225,2.4771824 c -0.124172,1.7663686 -0.04236,3.5593272 -0.04236,5.3295415 0,5.6954791 0.315593,11.5010051 -0.09435,17.1776871 -0.106596,1.47614 0.565652,4.462987 -0.481819,5.580894 -0.341088,-6.541653 -0.144039,-13.185861 -0.144039,-19.733706 0,-2.8363821 0.552255,-6.3306888 -0.137423,-9.0874012 C 87.520484,-0.63339271 83.018462,0.23215835 81.19461,0.26753571 80.30904,0.28471157 79.144172,0.25257535 78.695918,1.1871384 77.816119,3.0209255 78.398767,6.3829875 78.445005,8.3828903 78.561239,13.401978 78.313776,18.478193 78.313776,23.507263 v 5.1855 c 0.0027,1.018085 0.151242,1.773441 -0.864249,2.304668 -0.453016,-2.440068 -0.144038,-5.155539 -0.144038,-7.634208 V 9.1030987 c 0,-2.2115436 0.480952,-5.0628052 -0.08037,-7.2020826 -0.645453,-2.45992597 -5.157415,-1.77451511 -7.121711,-1.72638985 -0.877937,0.0215041 -1.917627,0.17272042 -2.38504,1.01240555 -1.082188,1.9442151 -0.502706,5.5931791 -0.495646,7.7720255 0.01575,4.9443297 -1.47e-4,9.8909077 -1.47e-4,14.8362907 0,2.22573 0.478796,5.098065 -0.28808,7.202083 -0.73303,-0.297159 -0.727272,-0.994032 -0.696159,-1.7285 0.07678,-1.816509 0.119994,-3.641518 0.119994,-5.473583 V 8.6709736 c 0,-2.1253344 0.509046,-5.0388794 -0.192003,-7.0580411 -0.197756,-0.5695551 -0.819886,-1.09726315 -1.392447,-1.2483558 -1.682988,-0.44411613 -4.978225,-0.52635245 -6.62592,0 -0.657702,0.21010231 -1.219898,0.7023616 -1.392458,1.3923979 -0.566949,2.2679645 -0.19201,5.0055916 -0.19201,7.3461241 V 23.507263 c 0,3.536655 0.201516,6.910976 -0.864248,10.226958 M 61.028787,0.60464113 60.884748,0.74868252 61.028787,0.60464113 m 57.616663,0.43212497 -0.14404,0.1440415 0.14404,-0.1440415 m 23.1907,0.432125 -0.14404,0.1440413 0.14404,-0.1440413 m -34.13787,0.1440413 -0.14404,0.1440421 0.14404,-0.1440421 m 33.70575,0.432125 -0.14403,0.1440421 0.14403,-0.1440421 m -47.533746,23.0466646 -0.144039,0.144039 0.144039,-0.144039 m 57.904736,7.490167 0.14404,0.288081 h -0.28809 l 0.14405,-0.288081 m -95.211533,0.144039 -0.144039,0.144038 0.144039,-0.144038 m -0.288083,0.288084 -0.144039,0.144038 0.144039,-0.144038 m 95.643656,0 -0.14404,0.144038 0.14404,-0.144038 m 0.14404,0.576166 0.14404,0.144039 -0.14404,-0.144039 m -70.004239,1.296374 h -0.144038 c -0.587114,-0.36529 -1.478731,-0.144039 -2.160626,-0.144039 -1.881038,1.42e-4 -3.74119,0.07606 -5.617625,0.138999 -6.801933,0.227731 -13.656585,0.581209 -20.453912,0.581209 -1.874272,0 -4.138894,-0.05676 -5.905708,0.643002 -0.784163,0.310696 -1.742184,0.891762 -1.7285,1.805706 -0.631624,0.367738 -0.690247,1.041422 -0.72021,1.7285 l 20.443115,-0.17934 64.990283,-0.142169 22.53734,0.291972 6.83046,0.02953 2.73679,-0.144039 0.57616,0.288084 0.57617,-0.288084 c -0.2247,-1.797927 -1.71409,-3.2781 -3.457,-3.671045 -4.21753,-0.951252 -9.23163,-0.650205 -13.53991,-0.650205 -16.22054,0 -32.44251,-0.720208 -48.686077,-0.720208 -4.03677,0 -8.071089,0.144039 -12.099501,0.144039 -0.897525,0 -3.577129,-0.398705 -4.177205,0.288083 m 80.231193,1.872543 -0.14404,0.144039 0.14404,-0.144039 m -0.14404,0.288084 -0.14404,0.144039 0.14404,-0.144039 m -115.809485,0.288082 -0.288083,0.288083 0.288083,-0.288083 m 116.961825,0.576166 -0.14404,0.144039 0.14404,-0.144039 M 45.90441,38.055461 45.760371,38.1995 45.90441,38.055461 m 117.20237,0.240116 -0.049,0.09593 0.049,-0.09593 m 0.47966,0.04796 -0.14403,0.144039 0.14403,-0.144039 m -0.28808,0.288083 -0.14404,0.144039 0.14404,-0.144039 m -117.682035,0.288084 -0.144038,0.144038 0.144038,-0.144038 m 0.576168,0 v 0.144038 l -0.432124,0.144039 v -0.144039 l 0.432124,-0.144038 m 94.059197,0.144038 -0.14404,0.144039 0.14404,-0.144039 m 21.84679,0.240116 -0.0489,0.09593 0.0489,-0.09593 m -116.338111,0.04796 -0.144039,0.144039 0.144039,-0.144039 m 117.537991,0 -0.14404,0.144039 0.14404,-0.144039 m 0.52863,0.336051 0.095,0.04811 -0.095,-0.04811 M 70.494179,40.58208 c -2.147232,0.257688 -4.381749,0.03083 -6.543669,0.09133 -5.098352,0.142737 -10.20924,0.262874 -15.309466,0.262874 -2.404776,0 -6.627789,-0.453154 -6.647955,3.162579 -0.0036,0.66533 0.64574,0.748153 1.174372,0.830977 1.359032,0.213038 2.802474,0.323228 4.177207,0.327693 5.790906,0.01848 11.677744,0.535692 17.470092,0.843942 18.398441,0.978907 36.97895,1.112289 55.41499,0.742533 6.48158,-0.130073 12.98261,0.221105 19.44562,-0.269213 6.7469,-0.511924 13.55575,-0.630469 20.31131,-1.017799 1.7285,-0.0991 3.46565,-0.153971 5.18406,-0.38243 0.5776,-0.07663 1.45914,0.0074 1.90135,-0.448257 0.35867,-0.368747 0.12963,-1.069797 -0.0145,-1.485502 -0.50991,-1.468361 -1.82357,-2.232358 -3.32736,-2.298905 -6.32776,-0.279442 -12.68719,-0.139859 -19.01926,-0.289957 -15.9683,-0.37897 -31.9794,-0.147794 -47.960103,-0.147794 H 79.60997 c -2.992615,0 -6.143089,-0.278863 -9.11582,0.07793 m -20.556763,4.243322 -0.144038,0.144039 0.144038,-0.144039 m 4.033165,0.432125 -0.144039,0.144039 0.144039,-0.144039 m 114.225038,0.787045 c -4.0663,0.713438 -8.13548,0.817005 -12.24355,1.098318 -9.49955,0.650637 -18.99348,0.727701 -28.51967,0.853015 -18.8575,0.247895 -37.752448,0.541308 -56.608945,-0.150821 -8.481894,-0.31142 -17.02817,-0.580201 -25.495372,-1.159969 -4.68409,-0.320781 -9.556299,-1.043292 -13.515283,2.30294 -2.309564,1.951909 -1.697532,4.698926 -1.280387,7.299595 0.334032,2.082986 0.568966,4.181821 0.967673,6.254867 2.28306,11.87076 4.559494,24.006703 4.027546,36.154459 -0.519557,11.863833 -3.947315,23.179903 -5.630876,34.858073 -0.492621,3.4171 -2.879104,9.22313 -0.591723,12.34005 0.536843,0.73173 1.527417,1.07887 2.339093,1.40153 2.101568,0.83688 4.411707,1.34246 6.625918,1.78612 8.648258,1.7328 17.588058,2.03097 26.359621,2.63451 13.657311,0.94059 27.351495,1.13938 41.051875,1.13938 10.18431,0 20.36979,0.0172 30.53899,-0.56465 12.70952,-0.72886 25.8245,-0.58481 38.16887,-4.14696 1.50957,-0.43501 3.37634,-0.93772 4.25355,-2.35941 1.09472,-1.77314 0.72886,-4.51123 0.43933,-6.4689 -0.68845,-4.65454 -1.78173,-9.24226 -2.8217,-13.82796 -3.04937,-13.44644 -4.88878,-27.130102 -3.57513,-40.90783 0.79511,-8.337995 2.78865,-16.483552 3.90497,-24.775163 0.30537,-2.261025 1.09616,-4.644912 1.15377,-6.914002 0.098,-3.910297 -2.62154,-5.32911 -5.94747,-6.27719 -1.15666,-0.329569 -2.38678,-0.78301 -3.60104,-0.569975 m -132.950447,1.517625 -0.144039,0.144039 0.144039,-0.144039 m 31.112998,0.576166 -0.144039,0.144038 0.144039,-0.144038 m 24.343038,0.288084 -0.144039,0.144039 0.144039,-0.144039 m -55.311995,0.432124 -0.144039,0.144039 0.144039,-0.144039 m 0.432125,0.144039 -0.144039,0.144038 0.144039,-0.144038 m 0.288083,0 c 4.132555,0.984236 8.871094,0.805193 13.10779,1.021975 8.201876,0.419736 16.411102,0.604397 24.625506,0.857911 23.91034,0.737925 47.968042,0.725537 71.882392,-0.156576 5.65221,-0.208571 11.35913,-0.30825 16.99692,-0.73591 3.14011,-0.238244 6.36232,-0.841348 9.50676,-0.843364 v 0.144039 c -3.57945,1.14297 -7.38935,1.149739 -11.09122,1.452371 -7.91797,0.647466 -15.81864,0.793957 -23.76687,0.996337 -16.43414,0.418439 -32.94794,1.033354 -49.406282,0.576164 -6.46891,-0.179612 -12.962741,-0.576164 -19.445624,-0.576164 -3.87861,0 -7.801005,-0.348439 -11.667373,-0.572134 -4.358269,-0.252217 -8.77977,-0.155127 -13.107789,-0.756219 -1.966603,-0.273246 -3.941845,-0.472889 -5.90571,-0.800295 -0.368459,-0.06136 -1.914747,-0.152964 -1.7285,-0.608143 m -5.185499,1.440415 -0.144038,0.144039 0.144038,-0.144039 m 102.125537,0.144039 -0.14404,0.144038 0.14404,-0.144038 M 72.696034,52.0275 72.551996,52.171538 72.696034,52.0275 m 1.872541,0.144038 -0.144039,0.144039 0.144039,-0.144039 m 58.048785,0 -0.14404,0.144039 0.14404,-0.144039 m 30.24874,1.440417 -0.14404,0.144038 0.14404,-0.144038 m -131.654063,2.592748 -0.144038,0.144039 0.144038,-0.144039 m 149.659273,7.003309 c -0.80375,0.06611 -2.18367,0.01932 -2.75696,0.704362 -0.65395,0.782291 -0.55888,3.082203 -0.73605,4.103748 -0.60065,3.458438 -1.27332,6.895703 -1.77603,10.371 -1.96906,13.602569 -1.25028,27.017748 1.43753,40.475698 0.59489,2.9808 1.26757,5.9459 1.84374,8.93059 0.17428,0.90962 0.13541,2.71272 0.89738,3.35012 0.86713,0.72567 3.336,0.2188 4.40334,0.10038 1.32663,-0.14721 1.20708,-2.70036 1.28342,-3.73861 0.29528,-4.03273 0.72741,-8.04977 0.73318,-12.0995 0.0158,-10.65303 0.59345,-21.314127 0.0115,-31.977244 -0.14837,-2.721238 0.11667,-5.50282 -0.23912,-8.210375 -0.37307,-2.851159 -0.19589,-5.784139 -0.53439,-8.642501 -0.095,-0.807494 0.0677,-2.333906 -0.59633,-2.920009 -0.86425,-0.761984 -2.91685,-0.534393 -3.97123,-0.44768 m 0.28808,0.342814 -0.14404,0.144039 0.14404,-0.144039 m 1.44042,0.144039 -0.14404,0.144038 0.14404,-0.144038 M 22.425504,64.415048 c 0.258267,4.062121 -0.679875,8.450639 -0.858632,12.531625 -0.200801,4.585713 0.219807,9.429109 -0.376667,13.972037 -0.719344,5.479352 0.02478,11.39183 -0.03387,16.91755 -0.05057,4.76648 0.35319,9.5877 0.680021,14.33949 0.14807,2.1504 -0.0219,4.84887 0.649484,6.9055 0.191289,0.58597 0.706667,0.58006 1.236021,0.58453 1.075846,0.009 3.664563,0.75261 4.508215,-0.0847 0.711997,-0.70696 0.762699,-2.70267 0.929357,-3.66025 0.529352,-3.04087 1.332961,-6.02411 1.804121,-9.07462 0.860217,-5.56995 1.866492,-11.0768 2.252091,-16.70883 0.452723,-6.610361 0.0126,-13.624327 -0.934684,-20.165835 -0.574584,-3.967052 -1.278082,-7.89478 -2.1383,-11.811414 -0.221249,-1.006853 -0.227297,-3.370716 -1.021254,-4.070333 -0.435439,-0.383578 -1.251291,-0.261578 -1.78511,-0.237808 -1.567603,0.06972 -3.425743,0.06035 -4.910811,0.563056 m 0.720208,0.432125 -0.144038,0.144038 0.144038,-0.144038 m 164.063436,3.024834 v 0.144039 h 0.43213 v 0.144038 c -0.59489,0.520854 -0.0375,3.276229 0.0605,4.094242 0.45085,3.730822 0.24632,7.56852 0.5027,11.318217 0.18293,2.672404 -0.049,5.386148 0.0172,8.064169 0.23622,9.74327 0.12818,19.50957 -0.29816,29.24261 -0.1066,2.44165 -0.5632,4.90448 -0.57041,7.34613 3.4354,-0.17703 7.0422,-0.1995 10.08292,-2.09336 0.81814,-0.50933 2.40404,-1.33008 2.4487,-2.37193 l 0.28808,0.28808 c 2.21969,-0.21174 5.08035,0.0439 6.90104,-1.4966 1.64928,-1.39561 1.6608,-3.59225 1.946,-5.56144 0.69717,-4.81142 0.9478,-9.6894 0.9478,-14.5482 0,-6.413029 0.22759,-12.930191 -0.5344,-19.301582 -0.27944,-2.326132 -0.11379,-5.008622 -1.7141,-6.906656 -1.89126,-2.243883 -5.16388,-1.113586 -7.25825,-2.784182 -2.90676,-2.317919 -5.2316,-3.628265 -8.78654,-4.716932 -1.36264,-0.417143 -3.0292,-1.017076 -4.4653,-0.860651 m 1.0083,0.432124 -0.43212,-0.144039 0.43212,0.144039 m -0.57617,0 -0.14404,0.144038 0.14404,-0.144038 M 19.832707,127.21725 c 0.734038,-2.05504 -0.0089,-4.89843 -0.132663,-7.06019 -0.255529,-4.45939 -0.214909,-8.93419 -0.432555,-13.39372 -0.618083,-12.662559 0.709262,-25.381722 0.709262,-38.026996 -3.064055,0.133526 -6.504015,1.482623 -9.074624,3.086095 -0.9610346,0.599502 -1.8783645,1.912585 -2.8942869,2.286228 -1.9824886,0.72914 -4.4156993,-0.0027 -5.8900364,2.00031 -1.98789456,2.701065 -2.01880068,7.975438 -2.01880068,11.208741 0,7.832265 -0.35361024,15.504502 0.27574337,23.334742 0.24599684,3.0606 0.37135257,7.43471 2.30267231,9.94608 1.7728364,2.30538 4.0684695,1.57884 6.3745061,2.52174 1.2470672,0.50991 2.1540702,1.73771 3.4346582,2.32397 2.417738,1.1071 4.789097,1.29824 7.346124,1.773 M 9.4617071,73.633764 9.3176685,73.777803 9.4617071,73.633764 m 190.7111429,0.144039 -0.14404,0.144038 0.14404,-0.144038 m -37.73891,31.977257 c -0.94635,0.93582 -1.35544,2.40692 -2.20527,3.45641 -2.62733,3.24339 -6.17796,5.72162 -10.18231,6.90939 -4.25499,1.2621 -8.72532,1.01348 -13.10779,1.01348 H 118.06915 80.906408 c -7.370611,0 -15.088219,0.6734 -22.326457,-0.92532 -3.295964,-0.72799 -6.096563,-2.484 -8.642499,-4.63324 -0.974731,-0.82292 -2.144203,-2.85693 -3.312958,-3.22798 -0.125181,-1.64511 -1.672323,-3.68502 -2.20816,-5.32955 -1.060865,-3.255474 -1.432637,-6.8751 -1.215997,-10.288024 0.175727,-2.765312 0.71963,-5.481212 1.884207,-8.005258 0.594315,-1.287729 1.978987,-2.534269 2.260157,-3.889126 1.1604,-0.325245 2.264335,-1.877003 3.31512,-2.566677 1.94168,-1.274768 4.209043,-2.097243 6.479714,-2.554146 2.966248,-0.596765 5.934514,-0.482825 8.930003,-0.652219 7.24328,-0.40951 14.488863,-0.564787 21.750871,-0.564787 13.877691,0 27.752361,-0.468278 41.628041,0.138431 4.55488,0.199059 9.12877,0.264174 13.68395,0.432555 5.75591,0.212749 11.75523,0.83746 15.96126,5.237642 5.13653,5.374917 5.39436,13.138184 4.61221,20.118869 -0.19734,1.77417 -1.27333,3.59298 -1.2719,5.32956 M 62.180991,74.786102 l -0.144039,0.144039 0.144039,-0.144039 m 114.225029,4.03317 -0.14403,0.144038 0.14403,-0.144038 m -154.556691,3.024875 -0.144039,0.144039 0.144039,-0.144039 m 0.144038,0.864251 -0.144038,0.144038 0.144038,-0.144038 m 41.916119,24.198992 c 0.497231,1.46648 3.412205,1.97481 4.753375,2.16063 4.942503,0.68491 10.16848,-1.24482 12.695546,-5.76167 2.457209,-4.391827 2.489906,-10.382089 -0.807066,-14.404163 -5.232602,-6.383641 -15.684554,-6.11068 -20.311746,0.864248 -2.666502,4.019626 -2.638988,9.812551 -0.02547,13.827995 0.735474,1.13001 2.22861,3.25995 3.695383,3.31296 M 144.57282,86.165397 c -0.37739,-0.577755 -1.35039,-1.179851 -2.01659,-0.864251 -0.79814,-1.267423 -3.596,-1.008724 -4.89742,-1.008293 -5.26817,0.0021 -10.67507,4.218833 -11.62099,9.506747 -0.48253,2.697179 -0.3758,5.702902 0.80203,8.21038 4.20875,8.96025 17.04877,9.66763 22.11184,1.15233 0.72452,-1.21974 1.34966,-2.62948 1.60461,-4.033164 0.6914,-3.814226 -0.25495,-7.984085 -2.95285,-10.837699 -0.77062,-0.814122 -1.88262,-1.988785 -3.03063,-2.12605 m -1.58446,-0.864251 -0.14404,0.144039 0.14404,-0.144039 m 1.87255,1.008289 -0.14404,0.144039 0.14404,-0.144039 M 66.646284,104.89081 h -0.144039 c -0.581064,-1.07931 -2.02609,-1.73398 -2.806794,-2.73693 -2.199229,-2.824806 -2.322815,-6.666398 -0.75852,-9.794694 0.640552,-1.280821 2.43675,-2.272115 2.845111,-3.456999 0.744261,0.148931 2.177332,-0.987118 3.168913,-1.152334 1.473548,-0.245591 3.344506,-0.03746 4.753375,0.432124 5.841754,1.947298 8.098168,11.355379 2.880837,15.268413 -2.052599,1.53952 -4.732062,2.56207 -7.490171,1.87255 -0.813114,-0.20324 -2.398868,-0.63177 -2.448705,-0.43213 M 142.55623,88.6141 c 0.86916,1.135628 2.16352,1.874702 3.02487,3.049364 1.80053,2.458645 1.87688,6.023966 0.71878,8.762046 -0.51855,1.22336 -1.61759,2.00752 -2.15918,3.16892 l -1.44042,1.15234 -1.00829,0.14403 0.28807,0.14404 v 0.14404 c -0.91148,-0.14979 -1.71264,0.20527 -2.61723,0.27642 -1.67535,0.13195 -3.33341,-0.0522 -4.87292,-0.75348 -1.11863,-0.50977 -2.18151,-1.32936 -2.98167,-2.25986 -0.44868,-0.52187 -0.82248,-1.50035 -1.48362,-1.72837 0.23348,-0.70048 -0.38084,-1.955364 -0.57616,-2.736788 -0.50905,-2.035883 0.3117,-4.860977 1.29636,-6.337835 0.54375,-0.815562 3.11505,-2.66448 3.02487,-3.024875 l 4.89741,-0.862087 3.88913,0.862087 m -15.55649,3.457 -0.14404,0.144038 0.14404,-0.144038 m 22.90262,0.432125 -0.14404,0.144039 0.14404,-0.144039 m 0.14404,0.288086 -0.14404,0.144038 0.14404,-0.144038 m -88.00945,1.008289 -0.144039,0.144039 0.144039,-0.144039 m -43.356535,1.440419 -0.144045,0.144039 0.144045,-0.144039 m 131.798115,0.720206 -0.14404,0.144039 0.14404,-0.144039 m -131.798115,3.31296 -0.144045,0.144039 0.144045,-0.144039 m 127.908985,1.872543 -0.14404,0.14404 0.14404,-0.14404 m -110.912072,1.58446 -0.144039,0.14403 0.144039,-0.14403 m 127.908992,0.28807 -0.14404,0.14404 0.14404,-0.14404 m -89.161786,2.01659 -0.144039,0.14404 0.144039,-0.14404 m -7.634209,0.14404 -0.144039,0.14404 0.144039,-0.14404 m 68.563825,0 -0.14404,0.14404 0.14404,-0.14404 m 27.22387,0.72022 -0.14403,0.14403 0.14403,-0.14403 m -16.56479,0.28807 -0.14404,0.14404 0.14404,-0.14404 m 16.56479,0.14404 -0.14403,0.14404 0.14403,-0.14404 m -130.21365,0.7202 -0.144039,0.14404 0.144039,-0.14404 m 111.34419,0.14404 -0.14403,0.14404 0.14403,-0.14404 m 0.43213,0.28809 -0.14404,0.14403 0.14404,-0.14403 m -69.139991,0.7202 -0.144039,0.14404 0.144039,-0.14404 m 86.136901,0.14404 -0.14404,0.14404 0.14404,-0.14404 m -129.061314,0.14404 -0.144038,0.14404 0.144038,-0.14404 m 128.917274,0.14404 -0.14403,0.14404 0.14403,-0.14404 m 0.57617,0 -0.14404,0.14404 0.14404,-0.14404 m -0.72021,0.28809 -0.14403,0.14404 0.14403,-0.14404 m -126.180483,2.16061 -0.144039,0.14404 0.144039,-0.14404 m 141.881023,0.14404 -0.14404,0.14404 0.14404,-0.14404 m -154.412648,0.57617 -0.144039,0.14404 0.144039,-0.14404 m 154.268608,0.14404 -0.14403,0.14404 0.14403,-0.14404 m -0.14403,0.43213 -0.14403,0.14404 0.14403,-0.14404 m -175.0106129,1.58446 -0.14404,0.14404 0.14404,-0.14404 m 153.9805329,0 -0.14404,0.14404 0.14404,-0.14404 m -0.14404,0.43211 -0.14404,0.14404 0.14404,-0.14404 m -133.238529,0.14404 -0.144039,0.14404 0.144039,-0.14404 m 32.121289,0 -0.144039,0.14404 0.144039,-0.14404 m 1.152334,0.57616 -0.144039,0.14404 0.144039,-0.14404 m 98.524486,0.14404 -0.14404,0.14404 0.14404,-0.14404 m -98.668527,0.28809 -0.144038,0.14404 0.144038,-0.14404 m 97.948327,0 -0.14404,0.14404 0.14404,-0.14404 m -119.698617,3.16891 -0.144038,0.14404 0.144038,-0.14404 m -30.6808749,1.15234 -0.1440386,0.14404 0.1440386,-0.14404 m 204.8272319,1.87254 -0.14404,0.14404 0.14404,-0.14404 m -1.29637,1.15233 -0.14404,0.14404 0.14404,-0.14404 m -0.28809,0.14404 -0.14404,0.14404 0.14404,-0.14404 m -5.47359,0.43213 -0.14404,0.14404 0.14404,-0.14404 m -189.558808,0.57617 -0.144038,0.14404 0.144038,-0.14404 m 189.126688,0 -0.28807,0.28808 0.28807,-0.28808 m -188.118391,0.28808 -0.144046,0.14403 0.144046,-0.14403 m 50.126493,0 c 1.479021,1.51028 4.772246,-0.41599 6.38378,1.45598 0.989424,1.14916 0.73303,2.48385 0.839189,3.87141 0.26705,3.48739 0.123164,7.01943 0.123164,10.51719 0,1.40296 0.17703,3.45441 -1.165732,4.3587 -1.15737,0.77927 -4.666515,0.39469 -6.036352,0.22327 -0.613042,-0.0763 -1.116033,-0.45805 -1.7285,-0.26071 l -0.86425,-1.15235 c -0.152691,-4.69604 -0.288084,-9.39511 -0.288084,-14.11607 0,-2.0516 0.116382,-4.40912 2.736793,-4.4653 v -0.43212 m 0.528198,0.0961 -0.04813,0.096 0.04813,-0.096 m 0.912219,-0.0961 -0.144039,0.14403 0.144039,-0.14403 m 0.576164,0 -0.144038,0.14403 0.144038,-0.14403 m 83.208539,0.0961 -0.049,0.096 0.049,-0.096 m 51.90254,-0.0961 -0.14404,0.14403 0.14404,-0.14403 m 0.28808,0.048 0.0476,0.0481 c -0.0706,0.0236 -0.15845,-0.0481 -0.0476,-0.0481 m -51.855,0.0961 -0.14404,0.14403 0.14404,-0.14403 m 51.71096,0.14403 -0.14404,0.14404 0.14404,-0.14404 m -58.76901,1.0083 c 0.96812,-0.9681 3.178,-0.43357 4.89743,-0.72021 1.27332,-0.21232 3.02631,-0.50198 4.03315,1.0083 0.63092,0.94649 0.28809,2.98223 0.28809,4.17719 v 9.36272 c 0,1.22493 0.20597,3.07528 -0.43212,4.03316 -1.4044,2.10733 -3.4887,0.76487 -5.61762,1.29638 -0.97084,0.24199 -2.58987,0.37163 -3.31296,-0.43213 -0.75104,-0.83457 -0.72021,-2.06455 -0.72021,-3.02487 v -10.94717 c 0,-1.9012 -0.11206,-3.48898 1.15233,-4.75337 h -0.28809 m -60.785563,-0.43212 -0.14404,0.43213 c 1.434803,0.93987 1.008296,3.43409 1.008296,4.8974 0,4.57635 -0.0082,9.15918 -0.288086,13.68397 l -0.72021,0.72021 c -2.071029,0.11955 -5.952806,1.12208 -7.776086,-0.3313 -1.303866,-1.04041 -1.010452,-2.64994 -1.010452,-4.134 v -10.22696 c 0,-1.29839 -0.357224,-3.20622 0.547361,-4.27385 1.967603,-2.32253 5.983489,-0.10353 8.383225,-0.7676 m 10.947163,0.14404 c 0.188412,0.74166 0.913943,1.15189 1.068354,1.99208 0.625141,3.40198 0.08398,7.3686 0.08398,10.82762 0,1.67751 0.370617,3.874 -0.179906,5.47358 -0.91409,2.65613 -7.687931,2.54378 -9.113805,0.42997 -0.918837,-1.36235 -0.501117,-3.61343 -0.501117,-5.18334 0,-4.28783 0.140573,-8.57567 0.288084,-12.81971 l 0.144039,-0.14403 v -0.14404 l 0.432123,0.14404 0.144039,-0.14404 -0.144039,-0.43213 2.5504,-0.24545 5.22785,0.24545 m 58.33687,-0.28809 -0.14404,0.14404 0.14404,-0.14404 m -46.66949,0.28809 -0.14404,0.43213 c 1.64466,0.82909 1.15232,3.67003 1.15232,5.18549 v 8.6425 c 0,1.34968 0.25813,3.04792 -0.28736,4.3214 -0.32812,0.76615 -1.0355,1.15506 -1.58517,1.72834 l -4.753373,-0.14404 h -2.304665 l 0.144038,-0.43212 -0.432123,0.14404 -0.864249,-2.4487 v -7.49017 -7.20208 l 0.864249,-2.30466 c 0.381567,0.0763 0.519557,0.0616 0.432123,-0.28809 l 7.77825,-0.14404 m 10.94717,0.43213 h 0.72021 l -0.14404,0.43212 0.57617,-0.14404 c -0.28621,0.98524 0.14403,2.53111 0.14403,3.60105 v 9.3627 c 0,2.28495 0.20368,4.18052 -1.00829,6.19379 -2.21666,0.12821 -5.71226,1.3079 -7.7516,-0.24487 -1.48435,-1.13101 -1.01881,-3.47097 -1.03551,-5.08466 -0.0406,-3.93336 -0.30926,-8.03091 0.0141,-11.95546 0.056,-0.67988 0.49564,-1.21543 0.56277,-1.87255 l 0.28809,-0.28807 0.57616,-0.43213 c 1.28311,0.2139 3.58548,-0.14404 5.18549,-0.14404 0.81081,0 1.78267,0.12676 1.87255,0.57618 m 3.16891,19.15754 v -0.14404 c 0.12417,-0.14549 0.15341,-0.41629 0,-0.14404 -0.62644,-1.44316 -0.43213,-3.06767 -0.43213,-4.60934 v -8.21038 c 0,-1.58892 -0.27122,-3.41897 0.41787,-4.89684 1.08104,-2.31863 4.11211,-1.72907 6.20805,-1.72907 0.95673,0 2.06426,-0.0759 2.80464,0.65295 1.16919,1.15117 0.94044,2.90401 0.94044,4.3885 v 10.37101 c 0,1.3923 0.14362,3.23949 -1.03493,4.24059 -0.86282,0.73316 -1.94241,0.65681 -2.99823,0.65681 -2.1187,0 -3.87299,-0.0677 -5.90571,-0.57615 m 11.3793,-18.00522 0.14403,-0.28808 h 0.43213 l -0.28809,-0.14403 v -0.14404 l 0.57617,-0.57616 h 0.14404 l 0.14404,0.28807 0.14404,-0.7202 c 2.27845,0.65639 5.91578,-1.3115 8.03925,0.382 1.23616,0.98595 1.03536,2.97762 1.03536,4.37136 v 9.93889 c 0,1.46505 0.23119,3.24381 -0.79682,4.44945 -0.69185,0.81095 -1.68501,0.82392 -2.65816,0.90026 -2.09565,0.16419 -5.41365,0.7807 -6.62072,-1.46274 -0.69688,-1.29509 -0.2953,-3.46118 -0.2953,-4.89527 0,-3.8678 0.60498,-8.29809 0,-12.0995 m -68.275729,-1.58445 -0.144039,0.14404 0.144039,-0.14404 m 23.190702,0 -0.28808,0.28808 0.28808,-0.28808 m 30.824917,0 -0.14404,0.14404 0.14404,-0.14404 m 0.7202,0 -0.14404,0.14404 0.14404,-0.14404 m 14.54822,0 -0.14404,0.14404 0.14404,-0.14404 m -69.284039,0.43213 -0.144039,0.14404 0.144039,-0.14404 m 80.807359,0 -0.14404,0.14404 0.14404,-0.14404 m -125.316232,0.14404 -0.144038,0.14403 0.144038,-0.14403 m 67.123409,0.43212 -0.144038,0.14404 0.144038,-0.14404 m -62.946198,0.33605 0.04796,0.0481 c -0.07101,0.0236 -0.15931,-0.0481 -0.04796,-0.0481 m 0.7201,-0.048 -0.432126,0.28808 0.432126,-0.28808 m 0.192006,0.38417 0.04812,0.096 -0.04812,-0.096 m 167.904605,0.048 -0.14404,0.14404 0.14404,-0.14404 m -0.14404,0.72021 -0.28809,0.28809 0.28809,-0.28809 m 0.28808,0.14404 -0.14403,0.14404 0.14403,-0.14404 m 0.57616,0 -0.14404,0.14404 0.14404,-0.14404 m -157.437522,2.59274 -0.144038,0.14404 0.144038,-0.14404 m 95.499612,4.4653 -0.14404,0.14403 0.14404,-0.14403 m -96.651945,0.14403 -0.144038,0.14404 0.144038,-0.14404 m -0.432126,2.01659 -0.144039,0.14404 0.144039,-0.14404 m 85.272651,0.43213 -0.14403,0.14403 0.14403,-0.14403 m 24.199,2.88082 -0.14404,0.14404 0.14404,-0.14404 m -57.616652,0.57618 -0.144039,0.14404 0.144039,-0.14404 m -52.575208,1.87253 -0.144038,0.14404 0.144038,-0.14404 m 51.854999,0 -0.144039,0.14404 0.144039,-0.14404 m 0.720209,0.14404 -0.144039,0.14404 0.144039,-0.14404 m 22.326452,0.14404 -0.14404,0.14404 0.14404,-0.14404 m -23.046661,0.28809 -0.144039,0.14403 0.144039,-0.14403 m -20.886039,0.43211 -0.144039,0.14404 0.144039,-0.14404 m 56.17624,0.14404 -0.14404,0.14404 0.14404,-0.14404 m -22.614536,0.28809 -0.144039,0.14404 0.144039,-0.14404 m 22.614536,0 -0.14404,0.14404 0.14404,-0.14404 m -1.44042,0.57617 -0.14404,0.14404 0.14404,-0.14404 m 14.11609,0.19158 0.048,0.049 c -0.071,0.023 -0.15931,-0.049 -0.048,-0.049 m -49.694369,0.38458 -0.144038,0.14404 0.144038,-0.14404 m 23.190699,0 -0.14404,0.14404 0.14404,-0.14404 m 11.37929,0.0476 0.048,0.049 c -0.071,0.023 -0.15931,-0.049 -0.048,-0.049 m -18.293288,0.38459 -0.144038,0.14404 0.144038,-0.14404 m -56.896451,2.7368 -0.144039,0.14404 0.144039,-0.14404 m 132.230239,0 -0.14404,0.14404 0.14404,-0.14404 m -0.86426,0.14404 -0.14404,0.14403 0.14404,-0.14403 m -18.14924,2.16062 -0.14404,0.14404 0.14404,-0.14404 m 0.57618,0.0476 c 0.11092,0 0.023,0.072 -0.0476,0.049 l 0.0476,-0.049 m -115.809501,0.0965 c -0.539724,2.90532 -0.607566,5.99356 -0.862088,8.94355 -0.0873,1.01116 -0.577463,2.50488 0.0027,3.43107 1.096734,1.7501 4.748045,2.48471 6.621017,2.92692 6.158071,1.45915 12.290503,2.30322 18.568412,3.04072 25.006064,2.93845 50.24791,2.61148 75.34674,1.54125 8.70156,-0.37163 17.54571,-1.24308 26.07155,-3.11417 1.99354,-0.43646 3.99138,-0.80088 5.9057,-1.52829 0.62802,-0.23912 1.71986,-0.40189 1.87254,-1.12497 0.99822,0.0576 2.41126,-0.87001 2.67341,-1.87254 0.24343,-0.92763 -0.18005,-2.23121 -0.3068,-3.16891 -0.24343,-1.77748 -0.23911,-3.57655 -0.44509,-5.35404 -0.10804,-0.93771 0.12676,-2.92836 -0.62514,-3.57655 l 0.14404,0.28808 c -1.10048,-0.57184 -2.58556,-0.0576 -3.74508,0.17286 -2.42279,0.4811 -4.88878,0.85993 -7.34613,1.09904 -9.64214,0.93626 -19.30173,1.2229 -28.95237,1.88405 -11.03777,0.75622 -22.36045,0.42781 -33.417662,0.16133 -12.944159,-0.31257 -25.836179,-0.57328 -38.747207,-1.45771 -4.947253,-0.33849 -9.890763,-0.76773 -14.823324,-1.33238 -2.647343,-0.30392 -5.261698,-0.95932 -7.935257,-0.95932 m 134.53491,0.28809 -0.14404,0.14404 0.14404,-0.14404 m -96.363868,3.16891 -0.144039,0.14404 0.144039,-0.14404 m 96.172278,10.17944 -0.049,0.095 0.049,-0.095 m -0.24054,0.19157 -0.14404,0.14404 0.14404,-0.14404 m -1.72851,0.72021 -0.14403,0.14404 0.14403,-0.14404 m -132.806394,0.86425 0.288083,0.57617 0.432125,-0.14404 c -0.04983,0.82248 0.627879,1.43322 1.186327,1.98345 1.537934,1.51388 3.497907,2.2557 5.439591,3.07962 2.670819,1.13359 5.658099,1.53691 8.498455,2.03097 5.420722,0.94204 10.819542,1.51966 16.276707,2.13183 8.280665,0.92906 16.599938,1.10191 24.919205,1.43897 17.178991,0.69716 34.474061,0.43069 51.566911,-1.27764 6.22547,-0.62226 12.49849,-1.60175 18.43733,-3.62554 3.17036,-1.07887 6.35656,-2.49336 8.35442,-5.32953 l -0.14404,-0.28809 c -11.56366,5.22439 -25.00276,5.67523 -37.45084,6.50492 -14.34568,0.95499 -28.85153,0.98092 -43.225306,0.41628 -8.454812,-0.33129 -16.923596,-0.47966 -25.338511,-1.48939 -6.615691,-0.79367 -13.240163,-1.42745 -19.733705,-2.96582 -2.091196,-0.49695 -4.187292,-1.08751 -6.193791,-1.86245 -0.990431,-0.38316 -2.2567,-1.2258 -3.312959,-1.17971 m 0.288083,0 -0.144038,0.14404 0.144038,-0.14404 m 0.72021,0.47966 c 0.111341,0 0.02304,0.072 -0.04796,0.049 l 0.04796,-0.049 m -0.144039,0.24055 -0.144039,0.14404 0.144039,-0.14404 m 1.008293,0 -0.144038,0.14404 0.144038,-0.14404 m 9.65079,0 -0.144039,0.14404 0.144039,-0.14404 m 123.540205,0.24055 -0.049,0.095 0.049,-0.095 m -133.767162,0.0476 -0.144039,0.14404 0.144039,-0.14404 m 133.238522,0.28809 -0.14404,0.14404 0.14404,-0.14404 m -105.726569,1.44041 -0.14404,0.14404 0.14404,-0.14404 m 84.120329,0.14404 -0.14404,0.14404 0.14404,-0.14404 m 1.00828,0 -0.14404,0.14404 0.14404,-0.14404 m 6.91401,4.60933 -0.14404,0.14404 z"
       id="path303" /></g></svg>
